<svg xmlns="http://www.w3.org/2000/svg" viewBox="0 0 1200 750" width="1200" height="750" role="img" aria-label="education-management-system cover art">
  <defs>
    <radialGradient id="g-06b6d4"><stop offset="0%" stop-color="#06b6d4" stop-opacity="0.85"/><stop offset="100%" stop-color="#06b6d4" stop-opacity="0"/></radialGradient>
    <radialGradient id="g-60a5fa"><stop offset="0%" stop-color="#60a5fa" stop-opacity="0.85"/><stop offset="100%" stop-color="#60a5fa" stop-opacity="0"/></radialGradient>
    <radialGradient id="g-6366f1"><stop offset="0%" stop-color="#6366f1" stop-opacity="0.85"/><stop offset="100%" stop-color="#6366f1" stop-opacity="0"/></radialGradient>
    <linearGradient id="txt-education-management-system" x1="0" y1="0" x2="1" y2="1">
      <stop offset="0%" stop-color="#06b6d4"/><stop offset="55%" stop-color="#60a5fa"/><stop offset="100%" stop-color="#6366f1"/>
    </linearGradient>
    <pattern id="dots-education-management-system" width="26" height="26" patternUnits="userSpaceOnUse">
      <circle cx="1.5" cy="1.5" r="1.5" fill="#ffffff" opacity="0.16"/>
    </pattern>
  </defs>
  <rect width="1200" height="750" fill="#07030f"/>
  <circle cx="192" cy="150" r="430" fill="url(#g-06b6d4)" opacity="0.55"/>
  <circle cx="1032" cy="195" r="380" fill="url(#g-6366f1)" opacity="0.45"/>
  <circle cx="624" cy="705" r="420" fill="url(#g-60a5fa)" opacity="0.4"/>
  <rect width="1200" height="750" fill="url(#dots-education-management-system)"/>
  <rect x="409" y="582" width="58" height="58" rx="14" fill="none" stroke="#60a5fa" stroke-width="2" opacity="0.14" transform="rotate(72 409 582)"/>
  <rect x="475" y="419" width="56" height="56" rx="14" fill="none" stroke="#60a5fa" stroke-width="2" opacity="0.11" transform="rotate(50 475 419)"/>
  <rect x="784" y="473" width="80" height="80" rx="14" fill="none" stroke="#06b6d4" stroke-width="2" opacity="0.20" transform="rotate(83 784 473)"/>
  <rect x="764" y="292" width="78" height="78" rx="14" fill="none" stroke="#06b6d4" stroke-width="2" opacity="0.13" transform="rotate(22 764 292)"/>
  <rect x="964" y="541" width="61" height="61" rx="14" fill="none" stroke="#60a5fa" stroke-width="2" opacity="0.11" transform="rotate(9 964 541)"/>
  <rect x="225" y="257" width="94" height="94" rx="14" fill="none" stroke="#60a5fa" stroke-width="2" opacity="0.13" transform="rotate(8 225 257)"/>
  <rect x="518" y="431" width="100" height="100" rx="14" fill="none" stroke="#06b6d4" stroke-width="2" opacity="0.11" transform="rotate(10 518 431)"/>
  <text x="600" y="375" text-anchor="middle" dominant-baseline="central"
        font-family="ui-sans-serif, system-ui, -apple-system, 'Segoe UI', Helvetica, Arial, sans-serif"
        font-size="230" font-weight="800" letter-spacing="10"
        fill="url(#txt-education-management-system)" opacity="0.92">EMS</text>
  <rect x="0.5" y="0.5" width="1199" height="749" fill="none" stroke="#ffffff" stroke-opacity="0.09" rx="26"/>
</svg>